<?xml version="1.0" ?><!DOCTYPE svg  PUBLIC '-//W3C//DTD SVG 1.1//EN'  'http://www.w3.org/Graphics/SVG/1.1/DTD/svg11.dtd'><svg enable-background="new 0 0 50 50" height="50px" id="Layer_1" version="1.1" viewBox="0 0 50 50" width="50px" xml:space="preserve" xmlns="http://www.w3.org/2000/svg" xmlns:xlink="http://www.w3.org/1999/xlink"><g><g><path d="M50,45.233C50,47.866,47.866,50,45.233,50H4.767C2.134,50,0,47.866,0,45.233V4.767     C0,2.134,2.134,0,4.767,0h40.466C47.866,0,50,2.134,50,4.767V45.233z" fill="#2899C0"/><path d="M36.338,13.518l-4.124,2.313l-7.023,4.417l-11.628,7.353L35.98,50h9.253C47.866,50,50,47.866,50,45.233     V27.18L36.338,13.518z" opacity="0.2"/><g><circle cx="33.782" cy="16.218" fill="#FFFFFF" r="3.718"/><circle cx="16.218" cy="25" fill="#FFFFFF" r="3.718"/><circle cx="33.782" cy="33.782" fill="#FFFFFF" r="3.718"/><rect fill="#FFFFFF" height="19.638" transform="matrix(-0.4459 0.8951 -0.8951 -0.4459 62.4546 20.1201)" width="2.835" x="23.582" y="19.572"/><rect fill="#FFFFFF" height="19.68" transform="matrix(0.4516 0.8922 -0.8922 0.4516 32.0951 -11.0257)" width="2.835" x="23.599" y="10.755"/></g></g></g></svg>